<?xml version="1.0" encoding="UTF-8" standalone="no"?>
<svg
   xmlns:dc="http://purl.org/dc/elements/1.1/"
   xmlns:cc="http://creativecommons.org/ns#"
   xmlns:rdf="http://www.w3.org/1999/02/22-rdf-syntax-ns#"
   xmlns:svg="http://www.w3.org/2000/svg"
   xmlns="http://www.w3.org/2000/svg"
   xmlns:sodipodi="http://sodipodi.sourceforge.net/DTD/sodipodi-0.dtd"
   xmlns:inkscape="http://www.inkscape.org/namespaces/inkscape"
   viewBox="0 0 72 72"
   width="360"
   height="360"
   version="1.1"
   id="svg45"
   sodipodi:docname="icons8-microsoft-edge.svg"
   inkscape:version="1.0.2-2 (e86c870879, 2021-01-15)">
  <metadata
     id="metadata51">
    <rdf:RDF>
      <cc:Work
         rdf:about="">
        <dc:format>image/svg+xml</dc:format>
        <dc:type
           rdf:resource="http://purl.org/dc/dcmitype/StillImage" />
        <dc:title></dc:title>
      </cc:Work>
    </rdf:RDF>
  </metadata>
  <defs
     id="defs49" />
  <sodipodi:namedview
     pagecolor="#ffffff"
     bordercolor="#666666"
     borderopacity="1"
     objecttolerance="10"
     gridtolerance="10"
     guidetolerance="10"
     inkscape:pageopacity="0"
     inkscape:pageshadow="2"
     inkscape:window-width="1920"
     inkscape:window-height="1017"
     id="namedview47"
     showgrid="false"
     inkscape:zoom="0.88541667"
     inkscape:cx="-133.25336"
     inkscape:cy="175.19124"
     inkscape:window-x="-8"
     inkscape:window-y="-8"
     inkscape:window-maximized="1"
     inkscape:current-layer="svg45" />
  <path
     fill="#1de9b6"
     d="m 16.42353,33.871588 c 0,-7.808 6.557,-19.481 20.014,-19.481 13.438,0 19.986,9.923 19.986,16.905 0,5.604 -4.429,9.732 -9.992,9.732 -4.245,0 -6.759,-1.408 -6.759,-2.53 0,-0.726 1.755,-1.837 1.755,-3.982 0,-2.565 -1.986,-5.137 -5.045,-5.137 -2.934,0 -4.974,2.442 -4.974,4.905 0,5.952 5.63,11.644 13.931,11.644 4.959,0 6.759,-1.828 7.403,-1.828 0.196,0 0.647,0.08 0.647,0.603 0,0.5 -5.486,9.686 -16.94,9.686 -11.394,0.002 -20.026,-8.975 -20.026,-20.517 z"
     id="path2" />
  <radialGradient
     id="2pm2zgLwrfHW4PMfqfOjYa"
     cx="17.993"
     cy="32.825001"
     r="21.348"
     gradientTransform="matrix(1,0,0,1.1083,12.42353,6.8615882)"
     gradientUnits="userSpaceOnUse">
    <stop
       offset=".652"
       stop-color="#0083de"
       id="stop4" />
    <stop
       offset=".822"
       stop-color="#006aac"
       id="stop6" />
    <stop
       offset=".944"
       stop-color="#005a8c"
       id="stop8" />
  </radialGradient>
  <path
     fill="url(#2pm2zgLwrfHW4PMfqfOjYa)"
     d="m 16.42353,33.871588 c 0,-7.808 7.615,-12.04 12.73,-12.04 13.439,0 17.277,2.483 17.277,9.465 0,5.604 -5.003,5.366 -5.003,3.221 0,-2.565 -1.986,-5.137 -5.045,-5.137 -2.934,0 -4.974,2.442 -4.974,4.905 0,5.952 5.63,11.644 13.931,11.644 4.959,0 6.759,-1.828 7.403,-1.828 0.196,0 0.647,0.08 0.647,0.603 0,0.5 -5.486,9.686 -16.94,9.686 -11.394,0 -20.026,-8.977 -20.026,-20.519 z"
     id="path11"
     style="fill:url(#2pm2zgLwrfHW4PMfqfOjYa)" />
  <radialGradient
     id="2pm2zgLwrfHW4PMfqfOjYb"
     cx="28.082001"
     cy="29.295"
     r="16.478001"
     gradientTransform="matrix(1,0,0,1.0028,12.42353,10.323589)"
     gradientUnits="userSpaceOnUse">
    <stop
       offset=".69"
       stop-color="#05509b"
       id="stop13" />
    <stop
       offset=".717"
       stop-color="#054e98"
       id="stop15" />
    <stop
       offset="1"
       stop-color="#033e78"
       id="stop17" />
  </radialGradient>
  <path
     fill="url(#2pm2zgLwrfHW4PMfqfOjYb)"
     d="m 31.40853,34.284588 c 0,-2.298 1.775,-4.575 4.395,-4.871 -4.104,0.349 -8.798,4.375 -8.798,11.831 0,7.963 6.864,13.465 13.943,12.628 8.386,-1.927 12.441,-8.74 12.441,-9.168 0,-0.523 -0.451,-0.603 -0.647,-0.603 -0.643,0 -2.444,1.828 -7.403,1.828 -8.301,0 -13.931,-5.692 -13.931,-11.645 z"
     id="path20"
     style="fill:url(#2pm2zgLwrfHW4PMfqfOjYb)" />
  <radialGradient
     id="2pm2zgLwrfHW4PMfqfOjYc"
     cx="47.647999"
     cy="16.079"
     r="61.532001"
     gradientTransform="matrix(-1,0,0,-1.5084,107.71953,50.700588)"
     gradientUnits="userSpaceOnUse">
    <stop
       offset="0"
       stop-color="#5eeb69"
       id="stop22" />
    <stop
       offset=".214"
       stop-color="#4bc958"
       id="stop24" />
    <stop
       offset=".225"
       stop-color="#4ac862"
       id="stop26" />
    <stop
       offset=".272"
       stop-color="#47c68b"
       id="stop28" />
    <stop
       offset=".323"
       stop-color="#44c4ae"
       id="stop30" />
    <stop
       offset=".376"
       stop-color="#41c2cb"
       id="stop32" />
    <stop
       offset=".433"
       stop-color="#3fc1e1"
       id="stop34" />
    <stop
       offset=".495"
       stop-color="#3ec0f1"
       id="stop36" />
    <stop
       offset=".565"
       stop-color="#3dbffa"
       id="stop38" />
    <stop
       offset=".664"
       stop-color="#3dbffd"
       id="stop40" />
  </radialGradient>
  <path
     fill="url(#2pm2zgLwrfHW4PMfqfOjYc)"
     d="m 16.42353,33.871588 c 0,-7.808 6.557,-19.481 20.014,-19.481 13.438,0 19.986,9.923 19.986,16.905 0,5.604 -4.429,9.732 -9.992,9.732 -4.245,0 -6.759,-1.408 -6.759,-2.53 0,-0.726 1.755,-1.837 1.755,-3.982 0,-2.565 -2.076,-10.678 -12.628,-10.678 -2.934,0.001 -11.12,1.298 -12.376,10.034 z"
     id="path43"
     style="fill:url(#2pm2zgLwrfHW4PMfqfOjYc)" />
</svg>
