<?xml version="1.0" encoding="UTF-8" standalone="no"?>
<svg
   xmlns:dc="http://purl.org/dc/elements/1.1/"
   xmlns:cc="http://creativecommons.org/ns#"
   xmlns:rdf="http://www.w3.org/1999/02/22-rdf-syntax-ns#"
   xmlns:svg="http://www.w3.org/2000/svg"
   xmlns="http://www.w3.org/2000/svg"
   xmlns:sodipodi="http://sodipodi.sourceforge.net/DTD/sodipodi-0.dtd"
   xmlns:inkscape="http://www.inkscape.org/namespaces/inkscape"
   height="480pt"
   viewBox="0 0 480 480"
   width="480pt"
   fill="#ffffff"
   version="1.1"
   id="svg4"
   sodipodi:docname="notification-empty.svg"
   inkscape:version="1.0.2-2 (e86c870879, 2021-01-15)">
  <metadata
     id="metadata10">
    <rdf:RDF>
      <cc:Work
         rdf:about="">
        <dc:format>image/svg+xml</dc:format>
        <dc:type
           rdf:resource="http://purl.org/dc/dcmitype/StillImage" />
        <dc:title />
      </cc:Work>
    </rdf:RDF>
  </metadata>
  <defs
     id="defs8" />
  <sodipodi:namedview
     pagecolor="#ffffff"
     bordercolor="#666666"
     borderopacity="1"
     objecttolerance="10"
     gridtolerance="10"
     guidetolerance="10"
     inkscape:pageopacity="0"
     inkscape:pageshadow="2"
     inkscape:window-width="1920"
     inkscape:window-height="1017"
     id="namedview6"
     showgrid="false"
     inkscape:zoom="0.62255859"
     inkscape:cx="486.48196"
     inkscape:cy="482.71823"
     inkscape:window-x="-8"
     inkscape:window-y="-8"
     inkscape:window-maximized="1"
     inkscape:current-layer="svg4"
     inkscape:document-rotation="0" />
  <path
     d="M 336.10121,125.2894 H 151.80648 c -13.95827,0 -25.31237,11.35409 -25.31237,25.31236 v 135.00346 c 0,13.95647 11.3541,25.31056 25.31237,25.31056 h 58.4068 l 19.34229,38.68636 c 3.36948,6.73897 8.61728,10.60492 14.39738,10.60492 5.7801,0 11.02789,-3.86595 14.39738,-10.60492 l 19.34407,-38.68636 h 58.40681 c 13.95647,0 25.31057,-11.35409 25.31057,-25.31056 V 150.60176 c 0,-13.95827 -11.3541,-25.31236 -25.31057,-25.31236 z m 11.54585,160.31582 c 0,6.36617 -5.17968,11.54585 -11.54585,11.54585 h -62.65989 c -2.60776,0 -4.9897,1.47326 -6.15648,3.80502 l -21.24568,42.48957 c -0.8567,1.71342 -1.66144,2.55579 -2.08621,2.8784 -0.42478,-0.32261 -1.22951,-1.16498 -2.08621,-2.8784 l -21.24568,-42.48957 c -1.16499,-2.33176 -3.54872,-3.80502 -6.1547,-3.80502 h -62.65988 c -6.36797,0 -11.54766,-5.17968 -11.54766,-11.54585 V 150.60176 c 0,-6.36796 5.17969,-11.54765 11.54766,-11.54765 h 184.29473 c 6.36617,0 11.54585,5.17969 11.54585,11.54765 z m 0,0"
     id="path2"
     style="stroke-width:0.458824" />
</svg>
