<?xml version="1.0" encoding="UTF-8" standalone="no"?>
<svg
   xmlns:dc="http://purl.org/dc/elements/1.1/"
   xmlns:cc="http://creativecommons.org/ns#"
   xmlns:rdf="http://www.w3.org/1999/02/22-rdf-syntax-ns#"
   xmlns:svg="http://www.w3.org/2000/svg"
   xmlns="http://www.w3.org/2000/svg"
   xmlns:sodipodi="http://sodipodi.sourceforge.net/DTD/sodipodi-0.dtd"
   xmlns:inkscape="http://www.inkscape.org/namespaces/inkscape"
   version="1.1"
   id="Capa_1"
   x="0px"
   y="0px"
   viewBox="0 0 480.00002 480.00002"
   xml:space="preserve"
   fill="#ffffff"
   sodipodi:docname="cancel.svg"
   width="480"
   height="480"
   inkscape:version="1.0.2-2 (e86c870879, 2021-01-15)"><metadata
   id="metadata43"><rdf:RDF><cc:Work
       rdf:about=""><dc:format>image/svg+xml</dc:format><dc:type
         rdf:resource="http://purl.org/dc/dcmitype/StillImage" /><dc:title /></cc:Work></rdf:RDF></metadata><defs
   id="defs41" /><sodipodi:namedview
   pagecolor="#ffffff"
   bordercolor="#666666"
   borderopacity="1"
   objecttolerance="10"
   gridtolerance="10"
   guidetolerance="10"
   inkscape:pageopacity="0"
   inkscape:pageshadow="2"
   inkscape:window-width="1920"
   inkscape:window-height="1017"
   id="namedview39"
   showgrid="false"
   inkscape:zoom="1.1739055"
   inkscape:cx="151.70814"
   inkscape:cy="282.94684"
   inkscape:window-x="-8"
   inkscape:window-y="-8"
   inkscape:window-maximized="1"
   inkscape:current-layer="Capa_1"
   inkscape:document-rotation="0" />
<g
   id="g6"
   transform="matrix(0.33615218,0,0,0.34296509,158.4453,148.22365)">
	<g
   id="g4">
		<path
   d="M 284.286,256.002 506.143,34.144 c 7.811,-7.811 7.811,-20.475 0,-28.285 -7.811,-7.81 -20.475,-7.811 -28.285,0 L 256,227.717 34.143,5.859 c -7.811,-7.811 -20.475,-7.811 -28.285,0 -7.81,7.811 -7.811,20.475 0,28.285 L 227.715,256.001 5.858,477.859 c -7.811,7.811 -7.811,20.475 0,28.285 3.905,3.905 9.024,5.857 14.143,5.857 5.119,0 10.237,-1.952 14.143,-5.857 L 256,284.287 477.857,506.144 c 3.905,3.905 9.024,5.857 14.143,5.857 5.119,0 10.237,-1.952 14.143,-5.857 7.811,-7.811 7.811,-20.475 0,-28.285 z"
   id="path2" />
	</g>
</g>
<g
   id="g8">
</g>
<g
   id="g10">
</g>
<g
   id="g12">
</g>
<g
   id="g14">
</g>
<g
   id="g16">
</g>
<g
   id="g18">
</g>
<g
   id="g20">
</g>
<g
   id="g22">
</g>
<g
   id="g24">
</g>
<g
   id="g26">
</g>
<g
   id="g28">
</g>
<g
   id="g30">
</g>
<g
   id="g32">
</g>
<g
   id="g34">
</g>
<g
   id="g36">
</g>
</svg>
