<?xml version="1.0" encoding="UTF-8" standalone="no"?>
<svg
   xmlns:dc="http://purl.org/dc/elements/1.1/"
   xmlns:cc="http://creativecommons.org/ns#"
   xmlns:rdf="http://www.w3.org/1999/02/22-rdf-syntax-ns#"
   xmlns:svg="http://www.w3.org/2000/svg"
   xmlns="http://www.w3.org/2000/svg"
   xmlns:sodipodi="http://sodipodi.sourceforge.net/DTD/sodipodi-0.dtd"
   xmlns:inkscape="http://www.inkscape.org/namespaces/inkscape"
   version="1.1"
   id="Capa_1"
   x="0px"
   y="0px"
   viewBox="0 0 480 480"
   xml:space="preserve"
   sodipodi:docname="email.svg"
   width="480"
   height="480"
   inkscape:version="1.0.2-2 (e86c870879, 2021-01-15)"><metadata
   id="metadata53"><rdf:RDF><cc:Work
       rdf:about=""><dc:format>image/svg+xml</dc:format><dc:type
         rdf:resource="http://purl.org/dc/dcmitype/StillImage" /><dc:title></dc:title></cc:Work></rdf:RDF></metadata><defs
   id="defs51" /><sodipodi:namedview
   pagecolor="#ffffff"
   bordercolor="#666666"
   borderopacity="1"
   objecttolerance="10"
   gridtolerance="10"
   guidetolerance="10"
   inkscape:pageopacity="0"
   inkscape:pageshadow="2"
   inkscape:window-width="1920"
   inkscape:window-height="1017"
   id="namedview49"
   showgrid="false"
   inkscape:zoom="0.83007813"
   inkscape:cx="371.36145"
   inkscape:cy="295.19775"
   inkscape:window-x="-8"
   inkscape:window-y="-8"
   inkscape:window-maximized="1"
   inkscape:current-layer="Capa_1" />
<path
   style="fill:#64b5f6;stroke-width:0.471097"
   d="m 116.85646,205.65176 116.72013,73.54501 c 1.33325,0.97501 2.90891,1.45501 4.48457,1.45501 1.57567,0 3.15132,-0.48 4.48458,-1.45501 L 359.26587,205.65176 242.60634,117.15178 c -2.6968,-1.995 -6.39354,-1.995 -9.09036,0 z"
   id="path2" />
<path
   style="fill:#eceff1;stroke-width:0.471097"
   d="M 313.81411,115.65177 H 162.30822 c -8.34796,0 -15.15058,6.73501 -15.15058,14.99999 v 165.00002 c 0,4.13998 3.39373,7.49999 7.5753,7.49999 h 166.65645 c 4.18157,0 7.57531,-3.36001 7.57531,-7.49999 V 130.65176 c 0,-8.26498 -6.78747,-14.99999 -15.15059,-14.99999 z"
   id="path4" />
<g
   id="g12"
   transform="matrix(0.47345588,0,0,0.46875001,116.85646,115.65177)">
	<path
   style="fill:#90a4ae"
   d="m 144,96 h 224 c 8.832,0 16,-7.168 16,-16 0,-8.832 -7.168,-16 -16,-16 H 144 c -8.832,0 -16,7.168 -16,16 0,8.832 7.168,16 16,16 z"
   id="path6" />
	<path
   style="fill:#90a4ae"
   d="M 368,128 H 144 c -8.832,0 -16,7.168 -16,16 0,8.832 7.168,16 16,16 h 224 c 8.832,0 16,-7.168 16,-16 0,-8.832 -7.168,-16 -16,-16 z"
   id="path8" />
	<path
   style="fill:#90a4ae"
   d="M 272,192 H 144 c -8.832,0 -16,7.168 -16,16 0,8.832 7.168,16 16,16 h 128 c 8.832,0 16,-7.168 16,-16 0,-8.832 -7.168,-16 -16,-16 z"
   id="path10" />
</g>
<path
   style="fill:#1e88e5;stroke-width:0.471097"
   d="m 242.54574,279.19677 c -1.33326,0.97501 -2.90891,1.45501 -4.48458,1.45501 -1.57566,0 -3.15132,-0.48 -4.48457,-1.45501 L 116.85646,205.65176 v 135.00001 c 0,8.27999 6.78746,15.00001 15.15059,15.00001 h 212.10823 c 8.36312,0 15.15059,-6.72002 15.15059,-15.00001 V 205.65176 Z"
   id="path14" />
<path
   style="fill:#2196f3;stroke-width:0.471097"
   d="M 344.11528,355.65178 H 132.00705 c -8.49948,0 -15.15059,-6.58501 -15.15059,-15.00001 0,-2.385 1.15144,-4.63499 3.09072,-6.045 l 113.62941,-74.99999 c 1.33325,-0.97501 2.90891,-1.45502 4.48457,-1.45502 1.57567,0 3.15132,0.48001 4.48458,1.45502 l 113.62941,74.99999 c 1.93928,1.41001 3.09072,3.66 3.09072,6.045 0,8.415 -6.65111,15.00001 -15.15059,15.00001 z"
   id="path16" />
<g
   id="g18">
</g>
<g
   id="g20">
</g>
<g
   id="g22">
</g>
<g
   id="g24">
</g>
<g
   id="g26">
</g>
<g
   id="g28">
</g>
<g
   id="g30">
</g>
<g
   id="g32">
</g>
<g
   id="g34">
</g>
<g
   id="g36">
</g>
<g
   id="g38">
</g>
<g
   id="g40">
</g>
<g
   id="g42">
</g>
<g
   id="g44">
</g>
<g
   id="g46">
</g>
</svg>
